<svg width="15" height="16" viewBox="0 0 15 16" fill="none" xmlns="http://www.w3.org/2000/svg">
<g filter="url(#filter0_d_816_787)">
<rect width="14.4941" height="14.4941" rx="7.24706" fill="#8BF4ED" shape-rendering="crispEdges"/>
<path d="M5.91667 12.3332C6.34722 12.3332 6.69965 12.2255 6.97396 12.0103C7.24826 11.795 7.45833 11.479 7.60417 11.0623C7.72222 10.7151 7.83507 10.4721 7.94271 10.3332C8.05035 10.1943 8.29861 9.97206 8.6875 9.6665C9.11806 9.31928 9.45833 8.92692 9.70833 8.48942C9.95833 8.05192 10.0833 7.52762 10.0833 6.9165C10.0833 6.09012 9.80382 5.39741 9.24479 4.83838C8.68576 4.27935 7.99306 3.99984 7.16667 3.99984C6.34028 3.99984 5.64757 4.27935 5.08854 4.83838C4.52951 5.39741 4.25 6.09012 4.25 6.9165H5.08333C5.08333 6.32623 5.28299 5.83143 5.68229 5.43213C6.0816 5.03282 6.57639 4.83317 7.16667 4.83317C7.75694 4.83317 8.25174 5.03282 8.65104 5.43213C9.05035 5.83143 9.25 6.32623 9.25 6.9165C9.25 7.38873 9.15625 7.7915 8.96875 8.12484C8.78125 8.45817 8.51389 8.75678 8.16667 9.02067C7.80556 9.28456 7.52431 9.5415 7.32292 9.7915C7.12153 10.0415 6.97222 10.3123 6.875 10.604C6.77778 10.9096 6.66146 11.1353 6.52604 11.2811C6.39062 11.4269 6.1875 11.4998 5.91667 11.4998C5.6875 11.4998 5.49132 11.4182 5.32812 11.255C5.16493 11.0919 5.08333 10.8957 5.08333 10.6665H4.25C4.25 11.1248 4.41319 11.5172 4.73958 11.8436C5.06597 12.17 5.45833 12.3332 5.91667 12.3332ZM10.4167 10.1457C10.8264 9.729 11.151 9.24463 11.3906 8.69255C11.6302 8.14046 11.75 7.54845 11.75 6.9165C11.75 6.27762 11.6302 5.68039 11.3906 5.12484C11.151 4.56928 10.8264 4.08317 10.4167 3.6665L9.8125 4.24984C10.1597 4.59706 10.4306 4.9981 10.625 5.45296C10.8194 5.90782 10.9167 6.39567 10.9167 6.9165C10.9167 7.43039 10.8194 7.91303 10.625 8.36442C10.4306 8.81581 10.1597 9.21512 9.8125 9.56234L10.4167 10.1457ZM7.16667 7.95817C7.45833 7.95817 7.70486 7.85574 7.90625 7.65088C8.10764 7.44602 8.20833 7.20123 8.20833 6.9165C8.20833 6.62484 8.10764 6.37831 7.90625 6.17692C7.70486 5.97553 7.45833 5.87484 7.16667 5.87484C6.875 5.87484 6.62847 5.97553 6.42708 6.17692C6.22569 6.37831 6.125 6.62484 6.125 6.9165C6.125 7.20123 6.22569 7.44602 6.42708 7.65088C6.62847 7.85574 6.875 7.95817 7.16667 7.95817Z" fill="#00504C"/>
</g>
<defs>
<filter id="filter0_d_816_787" x="0" y="0" width="14.4941" height="15.4941" filterUnits="userSpaceOnUse" color-interpolation-filters="sRGB">
<feFlood flood-opacity="0" result="BackgroundImageFix"/>
<feColorMatrix in="SourceAlpha" type="matrix" values="0 0 0 0 0 0 0 0 0 0 0 0 0 0 0 0 0 0 127 0" result="hardAlpha"/>
<feOffset dy="1"/>
<feComposite in2="hardAlpha" operator="out"/>
<feColorMatrix type="matrix" values="0 0 0 0 0 0 0 0 0 0.313726 0 0 0 0 0.298039 0 0 0 1 0"/>
<feBlend mode="normal" in2="BackgroundImageFix" result="effect1_dropShadow_816_787"/>
<feBlend mode="normal" in="SourceGraphic" in2="effect1_dropShadow_816_787" result="shape"/>
</filter>
</defs>
</svg>
