<svg width="32" height="32" viewBox="0 0 32 32" fill="none" xmlns="http://www.w3.org/2000/svg">
<path d="M6.57157 25.4288C9.07226 27.9295 12.4639 29.3343 16.0004 29.3343H16.3338C16.7671 29.3343 17.1919 29.2137 17.5606 28.9858C17.9292 28.758 18.2271 28.432 18.4209 28.0444C18.6147 27.6568 18.6968 27.2229 18.6579 26.7912C18.6189 26.3596 18.4606 25.9474 18.2006 25.6007L17.8006 25.0673C17.5405 24.7206 17.3822 24.3084 17.3433 23.8768C17.3044 23.4452 17.3864 23.0112 17.5802 22.6236C17.774 22.236 18.0719 21.91 18.4406 21.6822C18.8092 21.4544 19.234 21.3337 19.6674 21.3337H22.6676C24.4359 21.3337 26.1317 20.6313 27.382 19.3809C28.6324 18.1306 29.3348 16.4347 29.3348 14.6665C29.3348 11.4836 27.9299 8.43114 25.4293 6.18053C22.9286 3.92991 19.5369 2.66553 16.0004 2.66553C12.4639 2.66553 9.07226 4.0704 6.57157 6.57108C4.07089 9.07177 2.66602 12.4634 2.66602 15.9999C2.66602 19.5364 4.07089 22.9281 6.57157 25.4288Z" stroke="#9B59B6" stroke-width="2" stroke-linecap="round"/>
</svg>
